<?xml version="1.0" encoding="UTF-8"?><svg id="Layer_1" xmlns="http://www.w3.org/2000/svg" viewBox="0 0 462.03 511.27"><defs><style>.cls-1{font-family:Poppins-Regular, Poppins;font-size:31.79px;}.cls-2{fill:#ef4035;}</style></defs><path class="cls-2" d="M5.73,288.34h15.08l8.33,41.89,10.3-41.89h15.5l9.89,41.89,8.41-41.89h15.17l-15.08,57.55h-17.06l-9.23-37.88-9.56,37.88h-17.06l-14.67-57.55Z"/><path class="cls-2" d="M112.97,299.49c6.84,0,11.7,3.12,14.18,7.13v-6.48h14.1v45.75h-14.1v-6.48c-2.55,4.02-7.42,7.13-14.26,7.13-11.21,0-20.19-9.18-20.19-23.61s8.98-23.45,20.28-23.45ZM117.09,311.7c-5.28,0-10.06,3.94-10.06,11.23s4.78,11.4,10.06,11.4,10.06-4.02,10.06-11.31-4.7-11.31-10.06-11.31Z"/><path class="cls-2" d="M165.56,345.89h-14.1v-45.75h14.1v7.62c3.21-4.84,8.24-8.12,14.42-8.12v14.84h-3.87c-6.68,0-10.55,2.3-10.55,10.17v21.23Z"/><path class="cls-2" d="M218.49,321.05c0-6.23-3.46-9.67-8.82-9.67s-8.82,3.44-8.82,9.67v24.84h-14.09v-45.75h14.09v6.07c2.8-3.85,7.75-6.56,13.93-6.56,10.63,0,17.72,7.21,17.72,19.51v26.73h-14.01v-24.84Z"/><path class="cls-2" d="M262.75,346.54c-13.52,0-23.24-9.02-23.24-23.53s9.56-23.53,23.24-23.53,22.92,8.85,22.92,22.79c0,1.31-.08,2.71-.25,4.1h-31.9c.5,5.98,4.2,8.77,8.74,8.77,3.96,0,6.18-1.97,7.34-4.43h15c-2.23,8.94-10.39,15.82-21.84,15.82ZM253.6,318.59h17.64c0-5-3.96-7.87-8.66-7.87s-8.16,2.79-8.98,7.87Z"/><path class="cls-2" d="M294.49,311.78h-5.11v-11.64h5.11v-1.31c0-11.97,7.42-17.87,21.43-17.14v11.89c-5.44-.33-7.34,1.31-7.34,6.15v.41h7.58v11.64h-7.58v34.11h-14.1v-34.11Z"/><path class="cls-2" d="M343.7,346.54c-13.52,0-23.74-9.02-23.74-23.53s10.47-23.53,23.9-23.53,23.9,9.02,23.9,23.53-10.55,23.53-24.07,23.53ZM343.7,334.41c5.03,0,9.73-3.69,9.73-11.4s-4.62-11.4-9.56-11.4-9.56,3.61-9.56,11.4,4.29,11.4,9.4,11.4Z"/><path class="cls-2" d="M389.37,345.89h-14.1v-45.75h14.1v7.62c3.21-4.84,8.24-8.12,14.42-8.12v14.84h-3.87c-6.68,0-10.55,2.3-10.55,10.17v21.23Z"/><path class="cls-2" d="M428.03,299.49c6.1,0,11.38,2.79,14.18,6.97v-21.23h14.1v60.67h-14.1v-6.56c-2.55,4.18-7.42,7.21-14.18,7.21-11.29,0-20.28-9.18-20.28-23.61s8.99-23.45,20.28-23.45ZM432.15,311.7c-5.28,0-10.06,3.94-10.06,11.23s4.78,11.4,10.06,11.4,10.06-4.02,10.06-11.31-4.7-11.31-10.06-11.31Z"/><path class="cls-2" d="M32.09,367.34c13.69,0,24.02,8.05,27.3,21.07h-15.41c-2.38-5.14-6.72-7.71-12.05-7.71-8.61,0-14.51,6.68-14.51,17.3s5.9,17.3,14.51,17.3c5.33,0,9.67-2.57,12.05-7.71h15.41c-3.28,13.02-13.61,20.98-27.3,20.98-16.97,0-28.94-12.59-28.94-30.57s11.97-30.66,28.94-30.66Z"/><path class="cls-2" d="M88.82,428.82c-13.45,0-23.61-9.42-23.61-24.58s10.41-24.58,23.78-24.58,23.78,9.42,23.78,24.58-10.49,24.58-23.94,24.58ZM88.82,416.15c5,0,9.67-3.85,9.67-11.9s-4.59-11.9-9.51-11.9-9.51,3.77-9.51,11.9,4.26,11.9,9.35,11.9Z"/><path class="cls-2" d="M151.78,402.19c0-6.51-3.44-10.1-8.77-10.1s-8.77,3.6-8.77,10.1v25.95h-14.02v-47.78h14.02v6.34c2.79-4.02,7.71-6.85,13.86-6.85,10.58,0,17.63,7.54,17.63,20.38v27.92h-13.94v-25.95Z"/><path class="cls-2" d="M194.08,428.82c-12.22,0-20.41-7.11-21.07-16.36h13.86c.33,3.34,3.2,5.57,7.05,5.57,3.61,0,5.49-1.71,5.49-3.85,0-7.71-24.92-2.14-24.92-19.7,0-8.13,6.64-14.81,18.61-14.81s18.36,6.85,19.27,16.27h-12.95c-.41-3.25-2.79-5.39-6.72-5.39-3.28,0-5.08,1.37-5.08,3.68,0,7.62,24.76,2.23,25.01,20.04,0,8.31-7.05,14.56-18.53,14.56Z"/><path class="cls-2" d="M266.39,428.14h-14.02v-6.51c-2.79,4.11-7.71,7.02-13.86,7.02-10.58,0-17.71-7.62-17.71-20.38v-27.92h13.94v25.95c0,6.51,3.53,10.1,8.77,10.1s8.85-3.6,8.85-10.1v-25.95h14.02v47.78Z"/><path class="cls-2" d="M276.47,364.77h14.02v63.37h-14.02v-63.37Z"/><path class="cls-2" d="M302.87,392.52h-5.58v-12.16h5.58v-11.65h14.02v11.65h9.18v12.16h-9.18v19.18c0,2.83,1.15,4.02,4.26,4.02h5v12.42h-7.13c-9.51,0-16.15-4.2-16.15-16.61v-19.01Z"/><path class="cls-2" d="M332.63,367.51c0-4.45,3.36-7.96,8.36-7.96s8.28,3.51,8.28,7.96-3.36,7.88-8.28,7.88-8.36-3.51-8.36-7.88ZM333.94,380.36h14.02v47.78h-14.02v-47.78Z"/><path class="cls-2" d="M389.69,402.19c0-6.51-3.44-10.1-8.77-10.1s-8.77,3.6-8.77,10.1v25.95h-14.02v-47.78h14.02v6.34c2.79-4.02,7.71-6.85,13.86-6.85,10.58,0,17.63,7.54,17.63,20.38v27.92h-13.94v-25.95Z"/><path class="cls-2" d="M430.76,379.67c6.72,0,11.64,3.17,14.1,7.45v-6.77h14.02v47.7c0,12.76-7.05,23.63-22.87,23.63-13.61,0-22.46-7.19-23.69-18.58h13.86c.9,3.6,4.34,5.91,9.18,5.91,5.33,0,9.51-2.91,9.51-10.96v-6.76c-2.54,4.2-7.38,7.54-14.1,7.54-11.23,0-20.17-9.59-20.17-24.66s8.94-24.49,20.17-24.49ZM434.86,392.43c-5.25,0-10,4.11-10,11.73s4.75,11.9,10,11.9,10-4.2,10-11.82-4.67-11.82-10-11.82Z"/><text class="cls-1" transform="translate(0 493.08)"><tspan x="0" y="0">Estate Management Services</tspan></text><path class="cls-2" d="M337.11,144.87c-10.48-10.48-24.95-16.96-40.95-16.96-31.98,0-57.9,25.92-57.9,57.9s25.92,57.91,57.9,57.91h57.91v-57.91c0-15.99-6.48-30.47-16.97-40.95ZM332.66,195.68c5.36,2.51,2.01,10.58-3.55,8.57l-21.88-7.93,7.93,21.88c2.01,5.56-6.06,8.91-8.57,3.55l-9.87-21.07-9.86,21.07c-2.51,5.36-10.59,2.01-8.57-3.55l7.93-21.88-21.88,7.93c-5.56,2.01-8.91-6.06-3.55-8.57l21.07-9.87-21.07-9.86c-5.36-2.51-2.01-10.59,3.55-8.58l21.88,7.93-7.93-21.88c-2.02-5.56,6.06-8.91,8.57-3.55l9.86,21.07,9.87-21.07c2.51-5.36,10.58-2.01,8.57,3.55l-7.93,21.88,21.88-7.93c5.56-2.01,8.91,6.07,3.55,8.58l-21.07,9.86,21.07,9.87Z"/><path class="cls-2" d="M340.63,14v43.91c0,24.21-19.7,43.91-43.91,43.91s-43.91-19.7-43.91-43.91,19.7-43.91,43.91-43.91h43.91M354.63,0h-57.91C264.74,0,238.81,25.93,238.81,57.91h0c0,31.98,25.93,57.91,57.91,57.91h0c31.98,0,57.91-25.93,57.91-57.91V0h0Z"/><path class="cls-2" d="M206.25,16.96C195.77,6.48,181.29,0,165.31,0h-57.9v57.9c0,31.98,25.92,57.91,57.9,57.91s57.91-25.93,57.91-57.91c0-15.99-6.48-30.47-16.97-40.95ZM201.8,67.78c5.36,2.51,2.01,10.58-3.55,8.57l-21.88-7.93,7.93,21.88c2.01,5.56-6.06,8.91-8.57,3.55l-9.87-21.07-9.86,21.07c-2.51,5.36-10.59,2.01-8.58-3.55l7.93-21.88-21.88,7.93c-5.56,2.01-8.91-6.06-3.55-8.57l21.07-9.87-21.07-9.86c-5.36-2.51-2.01-10.59,3.55-8.57l21.88,7.93-7.93-21.88c-2.01-5.56,6.07-8.91,8.58-3.55l9.86,21.07,9.87-21.07c2.51-5.36,10.58-2.01,8.57,3.55l-7.93,21.88,21.88-7.93c5.56-2.02,8.91,6.06,3.55,8.57l-21.07,9.86,21.07,9.87Z"/><path class="cls-2" d="M165.86,141.91c24.21,0,43.91,19.7,43.91,43.91s-19.7,43.91-43.91,43.91h-43.91v-43.91c0-24.21,19.7-43.91,43.91-43.91M165.86,127.91h0c-31.98,0-57.91,25.93-57.91,57.91v57.91h57.91c31.98,0,57.91-25.93,57.91-57.91h0c0-31.98-25.93-57.91-57.91-57.91h0Z"/></svg>